solid OpenSCAD_Model
  facet normal -1 0 0
    outer loop
      vertex 7.755 -7.255 2
      vertex 7.755 7.255 3
      vertex 7.755 7.255 2
    endloop
  endfacet
  facet normal -1 -0 0
    outer loop
      vertex 7.755 7.255 3
      vertex 7.755 -7.255 2
      vertex 7.755 -7.255 3
    endloop
  endfacet
  facet normal 0 0 1
    outer loop
      vertex 7.755 7.255 2
      vertex 7.255 6.755 2
      vertex 7.755 -7.255 2
    endloop
  endfacet
  facet normal 0 0 1
    outer loop
      vertex 7.755 7.255 2
      vertex -7.255 6.755 2
      vertex 7.255 6.755 2
    endloop
  endfacet
  facet normal 0 0 1
    outer loop
      vertex -7.255 6.755 2
      vertex -7.755 7.255 2
      vertex -7.255 -6.755 2
    endloop
  endfacet
  facet normal -0 0 1
    outer loop
      vertex -7.755 7.255 2
      vertex -7.255 6.755 2
      vertex 7.755 7.255 2
    endloop
  endfacet
  facet normal -0 0 1
    outer loop
      vertex 7.255 -6.755 2
      vertex 7.755 -7.255 2
      vertex 7.255 6.755 2
    endloop
  endfacet
  facet normal -0 0 1
    outer loop
      vertex -7.255 -6.755 2
      vertex 7.755 -7.255 2
      vertex 7.255 -6.755 2
    endloop
  endfacet
  facet normal 0 0 1
    outer loop
      vertex -7.255 -6.755 2
      vertex -7.755 -7.255 2
      vertex 7.755 -7.255 2
    endloop
  endfacet
  facet normal 0 0 1
    outer loop
      vertex -7.755 -7.255 2
      vertex -7.255 -6.755 2
      vertex -7.755 7.255 2
    endloop
  endfacet
  facet normal 1 -0 0
    outer loop
      vertex -7.755 -7.255 3
      vertex -7.755 7.255 2
      vertex -7.755 7.255 3
    endloop
  endfacet
  facet normal 1 0 0
    outer loop
      vertex -7.755 7.255 2
      vertex -7.755 -7.255 3
      vertex -7.755 -7.255 2
    endloop
  endfacet
  facet normal 0 -1 0
    outer loop
      vertex -7.755 7.255 2
      vertex 7.755 7.255 3
      vertex -7.755 7.255 3
    endloop
  endfacet
  facet normal 0 -1 -0
    outer loop
      vertex 7.755 7.255 3
      vertex -7.755 7.255 2
      vertex 7.755 7.255 2
    endloop
  endfacet
  facet normal 0 1 -0
    outer loop
      vertex 7.755 -7.255 2
      vertex -7.755 -7.255 3
      vertex 7.755 -7.255 3
    endloop
  endfacet
  facet normal 0 1 0
    outer loop
      vertex -7.755 -7.255 3
      vertex 7.755 -7.255 2
      vertex -7.755 -7.255 2
    endloop
  endfacet
  facet normal -1 0 0
    outer loop
      vertex 7.255 -6.755 -3
      vertex 7.255 6.755 2
      vertex 7.255 6.755 -3
    endloop
  endfacet
  facet normal -1 -0 0
    outer loop
      vertex 7.255 6.755 2
      vertex 7.255 -6.755 -3
      vertex 7.255 -6.755 2
    endloop
  endfacet
  facet normal 1 -0 0
    outer loop
      vertex -7.255 -6.755 2
      vertex -7.255 6.755 -3
      vertex -7.255 6.755 2
    endloop
  endfacet
  facet normal 1 0 0
    outer loop
      vertex -7.255 6.755 -3
      vertex -7.255 -6.755 2
      vertex -7.255 -6.755 -3
    endloop
  endfacet
  facet normal 0 -1 0
    outer loop
      vertex -7.255 6.755 -3
      vertex 7.255 6.755 2
      vertex -7.255 6.755 2
    endloop
  endfacet
  facet normal 0 -1 -0
    outer loop
      vertex 7.255 6.755 2
      vertex -7.255 6.755 -3
      vertex 7.255 6.755 -3
    endloop
  endfacet
  facet normal 0 1 -0
    outer loop
      vertex 7.255 -6.755 -3
      vertex -7.255 -6.755 2
      vertex 7.255 -6.755 2
    endloop
  endfacet
  facet normal 0 1 0
    outer loop
      vertex -7.255 -6.755 2
      vertex 7.255 -6.755 -3
      vertex -7.255 -6.755 -3
    endloop
  endfacet
  facet normal 1 -0 0
    outer loop
      vertex 10 -10 3
      vertex 10 10 -3
      vertex 10 10 3
    endloop
  endfacet
  facet normal 1 0 0
    outer loop
      vertex 10 10 -3
      vertex 10 -10 3
      vertex 10 -10 -3
    endloop
  endfacet
  facet normal 0 0 1
    outer loop
      vertex 10 10 3
      vertex 7.755 7.255 3
      vertex 10 -10 3
    endloop
  endfacet
  facet normal 0 0 1
    outer loop
      vertex 10 10 3
      vertex -7.755 7.255 3
      vertex 7.755 7.255 3
    endloop
  endfacet
  facet normal 0 0 1
    outer loop
      vertex -7.755 7.255 3
      vertex -10 10 3
      vertex -7.755 -7.255 3
    endloop
  endfacet
  facet normal -0 0 1
    outer loop
      vertex -10 10 3
      vertex -7.755 7.255 3
      vertex 10 10 3
    endloop
  endfacet
  facet normal -0 0 1
    outer loop
      vertex 7.755 -7.255 3
      vertex 10 -10 3
      vertex 7.755 7.255 3
    endloop
  endfacet
  facet normal -0 0 1
    outer loop
      vertex -7.755 -7.255 3
      vertex 10 -10 3
      vertex 7.755 -7.255 3
    endloop
  endfacet
  facet normal 0 0 1
    outer loop
      vertex -7.755 -7.255 3
      vertex -10 -10 3
      vertex 10 -10 3
    endloop
  endfacet
  facet normal 0 0 1
    outer loop
      vertex -10 -10 3
      vertex -7.755 -7.255 3
      vertex -10 10 3
    endloop
  endfacet
  facet normal 0 0 -1
    outer loop
      vertex 10 -10 -3
      vertex 7.255 -6.755 -3
      vertex 10 10 -3
    endloop
  endfacet
  facet normal 0 0 -1
    outer loop
      vertex 10 -10 -3
      vertex -7.255 -6.755 -3
      vertex 7.255 -6.755 -3
    endloop
  endfacet
  facet normal -0 0 -1
    outer loop
      vertex -7.255 -6.755 -3
      vertex -10 -10 -3
      vertex -7.255 6.755 -3
    endloop
  endfacet
  facet normal 0 0 -1
    outer loop
      vertex -10 -10 -3
      vertex -7.255 -6.755 -3
      vertex 10 -10 -3
    endloop
  endfacet
  facet normal 0 0 -1
    outer loop
      vertex 7.255 6.755 -3
      vertex 10 10 -3
      vertex 7.255 -6.755 -3
    endloop
  endfacet
  facet normal 0 0 -1
    outer loop
      vertex -7.255 6.755 -3
      vertex 10 10 -3
      vertex 7.255 6.755 -3
    endloop
  endfacet
  facet normal 0 0 -1
    outer loop
      vertex -7.255 6.755 -3
      vertex -10 10 -3
      vertex 10 10 -3
    endloop
  endfacet
  facet normal 0 0 -1
    outer loop
      vertex -10 10 -3
      vertex -7.255 6.755 -3
      vertex -10 -10 -3
    endloop
  endfacet
  facet normal -1 0 0
    outer loop
      vertex -10 -10 -3
      vertex -10 10 3
      vertex -10 10 -3
    endloop
  endfacet
  facet normal -1 -0 0
    outer loop
      vertex -10 10 3
      vertex -10 -10 -3
      vertex -10 -10 3
    endloop
  endfacet
  facet normal 0 1 -0
    outer loop
      vertex 10 10 -3
      vertex -10 10 3
      vertex 10 10 3
    endloop
  endfacet
  facet normal 0 1 0
    outer loop
      vertex -10 10 3
      vertex 10 10 -3
      vertex -10 10 -3
    endloop
  endfacet
  facet normal 0 -1 0
    outer loop
      vertex -10 -10 -3
      vertex 10 -10 3
      vertex -10 -10 3
    endloop
  endfacet
  facet normal 0 -1 -0
    outer loop
      vertex 10 -10 3
      vertex -10 -10 -3
      vertex 10 -10 -3
    endloop
  endfacet
endsolid OpenSCAD_Model
