solid OpenSCAD_Model
  facet normal -1 0 0
    outer loop
      vertex 7.76 -7.26 0
      vertex 7.76 7.26 1.4
      vertex 7.76 7.26 0
    endloop
  endfacet
  facet normal -1 -0 0
    outer loop
      vertex 7.76 7.26 1.4
      vertex 7.76 -7.26 0
      vertex 7.76 -7.26 1.4
    endloop
  endfacet
  facet normal 0 0 1
    outer loop
      vertex 7.76 7.26 0
      vertex 7.26 6.76 0
      vertex 7.76 -7.26 0
    endloop
  endfacet
  facet normal 0 0 1
    outer loop
      vertex 7.76 7.26 0
      vertex -7.26 6.76 0
      vertex 7.26 6.76 0
    endloop
  endfacet
  facet normal 0 0 1
    outer loop
      vertex -7.26 6.76 0
      vertex -7.76 7.26 0
      vertex -7.26 -6.76 0
    endloop
  endfacet
  facet normal -0 0 1
    outer loop
      vertex -7.76 7.26 0
      vertex -7.26 6.76 0
      vertex 7.76 7.26 0
    endloop
  endfacet
  facet normal -0 0 1
    outer loop
      vertex 7.26 -6.76 0
      vertex 7.76 -7.26 0
      vertex 7.26 6.76 0
    endloop
  endfacet
  facet normal -0 0 1
    outer loop
      vertex -7.26 -6.76 0
      vertex 7.76 -7.26 0
      vertex 7.26 -6.76 0
    endloop
  endfacet
  facet normal 0 0 1
    outer loop
      vertex -7.26 -6.76 0
      vertex -7.76 -7.26 0
      vertex 7.76 -7.26 0
    endloop
  endfacet
  facet normal 0 0 1
    outer loop
      vertex -7.76 -7.26 0
      vertex -7.26 -6.76 0
      vertex -7.76 7.26 0
    endloop
  endfacet
  facet normal 1 -0 0
    outer loop
      vertex -7.76 -7.26 1.4
      vertex -7.76 7.26 0
      vertex -7.76 7.26 1.4
    endloop
  endfacet
  facet normal 1 0 0
    outer loop
      vertex -7.76 7.26 0
      vertex -7.76 -7.26 1.4
      vertex -7.76 -7.26 0
    endloop
  endfacet
  facet normal 0 -1 0
    outer loop
      vertex -7.76 7.26 0
      vertex 7.76 7.26 1.4
      vertex -7.76 7.26 1.4
    endloop
  endfacet
  facet normal 0 -1 -0
    outer loop
      vertex 7.76 7.26 1.4
      vertex -7.76 7.26 0
      vertex 7.76 7.26 0
    endloop
  endfacet
  facet normal 0 1 -0
    outer loop
      vertex 7.76 -7.26 0
      vertex -7.76 -7.26 1.4
      vertex 7.76 -7.26 1.4
    endloop
  endfacet
  facet normal 0 1 0
    outer loop
      vertex -7.76 -7.26 1.4
      vertex 7.76 -7.26 0
      vertex -7.76 -7.26 0
    endloop
  endfacet
  facet normal -1 0 0
    outer loop
      vertex 7.26 -6.76 -3
      vertex 7.26 6.76 0
      vertex 7.26 6.76 -3
    endloop
  endfacet
  facet normal -1 -0 0
    outer loop
      vertex 7.26 6.76 0
      vertex 7.26 -6.76 -3
      vertex 7.26 -6.76 0
    endloop
  endfacet
  facet normal 1 -0 0
    outer loop
      vertex -7.26 -6.76 0
      vertex -7.26 6.76 -3
      vertex -7.26 6.76 0
    endloop
  endfacet
  facet normal 1 0 0
    outer loop
      vertex -7.26 6.76 -3
      vertex -7.26 -6.76 0
      vertex -7.26 -6.76 -3
    endloop
  endfacet
  facet normal 0 -1 0
    outer loop
      vertex -7.26 6.76 -3
      vertex 7.26 6.76 0
      vertex -7.26 6.76 0
    endloop
  endfacet
  facet normal 0 -1 -0
    outer loop
      vertex 7.26 6.76 0
      vertex -7.26 6.76 -3
      vertex 7.26 6.76 -3
    endloop
  endfacet
  facet normal 0 1 -0
    outer loop
      vertex 7.26 -6.76 -3
      vertex -7.26 -6.76 0
      vertex 7.26 -6.76 0
    endloop
  endfacet
  facet normal 0 1 0
    outer loop
      vertex -7.26 -6.76 0
      vertex 7.26 -6.76 -3
      vertex -7.26 -6.76 -3
    endloop
  endfacet
  facet normal -1 0 0
    outer loop
      vertex 9.26 -8.76 1.4
      vertex 9.26 8.76 3
      vertex 9.26 8.76 1.4
    endloop
  endfacet
  facet normal -1 -0 0
    outer loop
      vertex 9.26 8.76 3
      vertex 9.26 -8.76 1.4
      vertex 9.26 -8.76 3
    endloop
  endfacet
  facet normal 0 0 1
    outer loop
      vertex 9.26 8.76 1.4
      vertex 7.76 7.26 1.4
      vertex 9.26 -8.76 1.4
    endloop
  endfacet
  facet normal 0 0 1
    outer loop
      vertex 9.26 8.76 1.4
      vertex -7.76 7.26 1.4
      vertex 7.76 7.26 1.4
    endloop
  endfacet
  facet normal 0 0 1
    outer loop
      vertex -7.76 7.26 1.4
      vertex -9.26 8.76 1.4
      vertex -7.76 -7.26 1.4
    endloop
  endfacet
  facet normal -0 0 1
    outer loop
      vertex -9.26 8.76 1.4
      vertex -7.76 7.26 1.4
      vertex 9.26 8.76 1.4
    endloop
  endfacet
  facet normal -0 0 1
    outer loop
      vertex 7.76 -7.26 1.4
      vertex 9.26 -8.76 1.4
      vertex 7.76 7.26 1.4
    endloop
  endfacet
  facet normal -0 0 1
    outer loop
      vertex -7.76 -7.26 1.4
      vertex 9.26 -8.76 1.4
      vertex 7.76 -7.26 1.4
    endloop
  endfacet
  facet normal 0 0 1
    outer loop
      vertex -7.76 -7.26 1.4
      vertex -9.26 -8.76 1.4
      vertex 9.26 -8.76 1.4
    endloop
  endfacet
  facet normal 0 0 1
    outer loop
      vertex -9.26 -8.76 1.4
      vertex -7.76 -7.26 1.4
      vertex -9.26 8.76 1.4
    endloop
  endfacet
  facet normal 1 -0 0
    outer loop
      vertex -9.26 -8.76 3
      vertex -9.26 8.76 1.4
      vertex -9.26 8.76 3
    endloop
  endfacet
  facet normal 1 0 0
    outer loop
      vertex -9.26 8.76 1.4
      vertex -9.26 -8.76 3
      vertex -9.26 -8.76 1.4
    endloop
  endfacet
  facet normal 0 -1 0
    outer loop
      vertex -9.26 8.76 1.4
      vertex 9.26 8.76 3
      vertex -9.26 8.76 3
    endloop
  endfacet
  facet normal 0 -1 -0
    outer loop
      vertex 9.26 8.76 3
      vertex -9.26 8.76 1.4
      vertex 9.26 8.76 1.4
    endloop
  endfacet
  facet normal 0 1 -0
    outer loop
      vertex 9.26 -8.76 1.4
      vertex -9.26 -8.76 3
      vertex 9.26 -8.76 3
    endloop
  endfacet
  facet normal 0 1 0
    outer loop
      vertex -9.26 -8.76 3
      vertex 9.26 -8.76 1.4
      vertex -9.26 -8.76 1.4
    endloop
  endfacet
  facet normal 1 -0 0
    outer loop
      vertex 10 -10 3
      vertex 10 10 -3
      vertex 10 10 3
    endloop
  endfacet
  facet normal 1 0 0
    outer loop
      vertex 10 10 -3
      vertex 10 -10 3
      vertex 10 -10 -3
    endloop
  endfacet
  facet normal 0 0 1
    outer loop
      vertex 10 10 3
      vertex 9.26 8.76 3
      vertex 10 -10 3
    endloop
  endfacet
  facet normal 0 0 1
    outer loop
      vertex 10 10 3
      vertex -9.26 8.76 3
      vertex 9.26 8.76 3
    endloop
  endfacet
  facet normal 0 0 1
    outer loop
      vertex -9.26 8.76 3
      vertex -10 10 3
      vertex -9.26 -8.76 3
    endloop
  endfacet
  facet normal -0 0 1
    outer loop
      vertex -10 10 3
      vertex -9.26 8.76 3
      vertex 10 10 3
    endloop
  endfacet
  facet normal -0 0 1
    outer loop
      vertex 9.26 -8.76 3
      vertex 10 -10 3
      vertex 9.26 8.76 3
    endloop
  endfacet
  facet normal -0 0 1
    outer loop
      vertex -9.26 -8.76 3
      vertex 10 -10 3
      vertex 9.26 -8.76 3
    endloop
  endfacet
  facet normal 0 0 1
    outer loop
      vertex -9.26 -8.76 3
      vertex -10 -10 3
      vertex 10 -10 3
    endloop
  endfacet
  facet normal 0 0 1
    outer loop
      vertex -10 -10 3
      vertex -9.26 -8.76 3
      vertex -10 10 3
    endloop
  endfacet
  facet normal 0 0 -1
    outer loop
      vertex 10 -10 -3
      vertex 7.26 -6.76 -3
      vertex 10 10 -3
    endloop
  endfacet
  facet normal 0 0 -1
    outer loop
      vertex 10 -10 -3
      vertex -7.26 -6.76 -3
      vertex 7.26 -6.76 -3
    endloop
  endfacet
  facet normal -0 0 -1
    outer loop
      vertex -7.26 -6.76 -3
      vertex -10 -10 -3
      vertex -7.26 6.76 -3
    endloop
  endfacet
  facet normal 0 0 -1
    outer loop
      vertex -10 -10 -3
      vertex -7.26 -6.76 -3
      vertex 10 -10 -3
    endloop
  endfacet
  facet normal 0 0 -1
    outer loop
      vertex 7.26 6.76 -3
      vertex 10 10 -3
      vertex 7.26 -6.76 -3
    endloop
  endfacet
  facet normal 0 0 -1
    outer loop
      vertex -7.26 6.76 -3
      vertex 10 10 -3
      vertex 7.26 6.76 -3
    endloop
  endfacet
  facet normal 0 0 -1
    outer loop
      vertex -7.26 6.76 -3
      vertex -10 10 -3
      vertex 10 10 -3
    endloop
  endfacet
  facet normal 0 0 -1
    outer loop
      vertex -10 10 -3
      vertex -7.26 6.76 -3
      vertex -10 -10 -3
    endloop
  endfacet
  facet normal -1 0 0
    outer loop
      vertex -10 -10 -3
      vertex -10 10 3
      vertex -10 10 -3
    endloop
  endfacet
  facet normal -1 -0 0
    outer loop
      vertex -10 10 3
      vertex -10 -10 -3
      vertex -10 -10 3
    endloop
  endfacet
  facet normal 0 1 -0
    outer loop
      vertex 10 10 -3
      vertex -10 10 3
      vertex 10 10 3
    endloop
  endfacet
  facet normal 0 1 0
    outer loop
      vertex -10 10 3
      vertex 10 10 -3
      vertex -10 10 -3
    endloop
  endfacet
  facet normal 0 -1 0
    outer loop
      vertex -10 -10 -3
      vertex 10 -10 3
      vertex -10 -10 3
    endloop
  endfacet
  facet normal 0 -1 -0
    outer loop
      vertex 10 -10 3
      vertex -10 -10 -3
      vertex 10 -10 -3
    endloop
  endfacet
endsolid OpenSCAD_Model
